<svg width="48" height="48" viewBox="0 0 48 48" fill="none" xmlns="http://www.w3.org/2000/svg">
<path fill-rule="evenodd" clip-rule="evenodd" d="M21 34C27.8618 34 34 27.8041 34 20.9423C34 14.0805 27.8041 8 20.9423 8C14.0805 8 8 14.0805 8 20.9423C8 27.8041 14.1382 34 21 34ZM20.9423 37.8847C30.2993 37.8847 37.8847 30.2993 37.8847 20.9423C37.8847 11.5853 30.2993 4 20.9423 4C11.5853 4 4 11.5853 4 20.9423C4 30.2993 11.5853 37.8847 20.9423 37.8847Z" fill="#0041CB"/>
<path fill-rule="evenodd" clip-rule="evenodd" d="M40.8053 44L29.5104 32.7051L32.7051 29.5104L44 40.8053L40.8053 44Z" fill="#0041CB"/>
<path fill-rule="evenodd" clip-rule="evenodd" d="M25.5325 14L21 18.5325L16.4675 14L14 16.4675L18.5325 21L14 25.5325L16.4675 28L21 23.4675L25.5325 28L28 25.5325L23.4675 21L28 16.4675L25.5325 14Z" fill="#0041CB"/>
</svg>
